<svg height="512" viewBox="0 0 512 512" width="512" xmlns="http://www.w3.org/2000/svg"><g id="Flat"><rect fill="#4d5e78" height="464" rx="32" width="256" x="168" y="24"/><path d="m392 24h-16l-208 384v48a32 32 0 0 0 32 32h192a32 32 0 0 0 32-32v-400a32 32 0 0 0 -32-32z" fill="#404f66"/><path d="m256 40h80l8-16h-96z" fill="#313b4c"/><path d="m200 152h192v104h-192z" fill="#60d1e0"/><path d="m328 152h-32v-40h24z" fill="#e0e0de"/><path d="m392 152h-32l-16-40h24z" fill="#e0e0de"/><path d="m264 152h-32l16-40h24z" fill="#e0e0de"/><path d="m296 152h-32l8-40h24z" fill="#f35244"/><path d="m360 152h-32l-8-40h24z" fill="#f35244"/><path d="m232 152h-32l24-40h24z" fill="#f35244"/><path d="m296 152h32a0 0 0 0 1 0 0v16a16 16 0 0 1 -16 16 16 16 0 0 1 -16-16v-16a0 0 0 0 1 0 0z" fill="#d6d6d4"/><path d="m360 152h32a0 0 0 0 1 0 0v16a16 16 0 0 1 -16 16 16 16 0 0 1 -16-16v-16a0 0 0 0 1 0 0z" fill="#d6d6d4"/><path d="m232 152h32a0 0 0 0 1 0 0v16a16 16 0 0 1 -16 16 16 16 0 0 1 -16-16v-16a0 0 0 0 1 0 0z" fill="#d6d6d4"/><path d="m264 152h32a0 0 0 0 1 0 0v16a16 16 0 0 1 -16 16 16 16 0 0 1 -16-16v-16a0 0 0 0 1 0 0z" fill="#de4132"/><path d="m328 152h32a0 0 0 0 1 0 0v16a16 16 0 0 1 -16 16 16 16 0 0 1 -16-16v-16a0 0 0 0 1 0 0z" fill="#de4132"/><path d="m200 152h32a0 0 0 0 1 0 0v16a16 16 0 0 1 -16 16 16 16 0 0 1 -16-16v-16a0 0 0 0 1 0 0z" fill="#de4132"/><path d="m232 216h64v40h-64z" fill="#348fd9"/><path d="m328 216h32v40h-32z" fill="#348fd9"/><path d="m200 256h192v32h-192z" fill="#e0e0de"/><path d="m232 216h48v40h-48z" fill="#3086cd"/><path d="m232 288h-32v40l-48-40h-96a32 32 0 0 1 -32-32v-160a32 32 0 0 1 32-32h176a32 32 0 0 1 32 32v160a32 32 0 0 1 -32 32z" fill="#348fd9"/><path d="m108 240a12 12 0 1 0 12 12 12.013 12.013 0 0 0 -12-12z" fill="#4db7e5"/><path d="m180 240a12 12 0 1 0 12 12 12.013 12.013 0 0 0 -12-12z" fill="#4db7e5"/><path d="m198 154.706a8 8 0 0 0 -6-2.706h-89.754l-6.485-25.94a8 8 0 0 0 -7.761-6.06h-24v16h17.754l6.367 25.467 7.941 63.525a8 8 0 0 0 7.938 7.008h80a8 8 0 0 0 7.938-7.008l8-64a8 8 0 0 0 -1.938-6.286zm-17.062 29.294h-12.938v-16h14.938zm-44.938 0v-16h16v16zm16 16v16h-16v-16zm-32-32v16h-12.938l-2-16zm-10.938 32h10.938v16h-8.938zm58.938 16v-16h10.938l-2 16z" fill="#4db7e5"/><path d="m163.562 105.344-11.562 7.708v-25.052h-16v25.052l-11.562-7.708-8.876 13.312 24 16a8 8 0 0 0 8.876 0l24-16z" fill="#ffb531"/><g fill="#313b4c"><path d="m200 320h88v72h-88z"/><path d="m312 312h88v16h-88z"/><path d="m312 344h88v16h-88z"/><path d="m312 376h88v16h-88z"/><path d="m200 424h88v40h-88z"/><path d="m312 416h88v16h-88z"/><path d="m312 448h88v16h-88z"/></g><path d="m392 496-3.139-6.277a84.977 84.977 0 0 1 3.139-81.723l-50.4-57.6a22.621 22.621 0 0 1 -5.6-14.9v-.871a22.628 22.628 0 0 1 22.627-22.629 22.627 22.627 0 0 1 16 6.627l49.373 49.373v-88l49.976 62.47a64 64 0 0 1 14.024 39.98v113.55" fill="#fec9a3"/><path d="m448 400a7.974 7.974 0 0 1 -5.657-2.343l-24-24a8 8 0 0 1 11.314-11.314l24 24a8 8 0 0 1 -5.657 13.657z" fill="#f7ad7c"/><path d="m320 64h16v16h-16z" fill="#313b4c"/><path d="m352 64h16v16h-16z" fill="#313b4c"/><path d="m384 64h16v16h-16z" fill="#313b4c"/></g></svg>